#!OML:ASF F:\twosubjects\two\Thursday\Session 1\justin.ASF
:FULLY-SPECIFIED
:DEGREES
321
root 9.13235 15.0762 -24.0671 0.685524 -79.7658 -3.6104
lowerback 7.66597 3.70322 -2.1609
upperback -3.29541 4.72126 0.0723335
thorax -7.95709 2.41539 0.598211
lowerneck -19.6417 2.17349 2.69461
upperneck 23.7806 0.276553 6.18424
head 10.9726 1.08304 1.82282
rclavicle -1.36167e-014 -4.37326e-015
rhumerus 35.2116 -50.1961 3.50313
rradius 74.7001
rwrist -10.3612
rhand -37.1942 31.8763
rfingers 7.12502
rthumb -10.262 2.14666
lclavicle -1.36167e-014 -4.37326e-015
lhumerus 67.5317 43.8888 24.3796
lradius 81.0412
lwrist -5.54192
lhand -27.5987 39.4084
lfingers 7.12502
lthumb -0.998323 69.3858
rfemur -6.89761 2.53947 -2.24533
rtibia 53.3808
rfoot -30.006 -0.372173
rtoes -36.6188
lfemur -5.93772 -10.9853 11.3636
ltibia 35.7598
lfoot -22.2596 -9.64858
ltoes -38.9912
322
root 9.10679 15.2813 -24.074 1.51768 -79.6095 -4.05409
lowerback 7.13783 3.66195 -2.19568
upperback -3.53904 4.67547 0.135024
thorax -7.9198 2.39883 0.715509
lowerneck -20.0973 2.10383 2.6072
upperneck 24.2092 0.140286 6.2248
head 11.2244 1.03351 1.84992
rclavicle -4.37326e-014 4.17448e-015
rhumerus 32.5945 -49.4643 4.37124
rradius 72.6851
rwrist -10.2977
rhand -43.2618 23.0039
rfingers 7.12502
rthumb -16.1104 -6.3465
lclavicle -4.37326e-014 4.17448e-015
lhumerus 65.1788 43.7756 23.4377
lradius 78.4224
lwrist -3.48434
lhand -26.497 40.031
lfingers 7.12502
lthumb 0.0657537 70.0107
rfemur -6.47945 2.9538 -1.66952
rtibia 51.6914
rfoot -27.8529 -0.6543
rtoes -36.6725
lfemur -5.63454 -11.3765 11.1591
ltibia 34.2328
lfoot -19.8797 -9.47081
ltoes -40.3353
323
root 9.07827 15.5113 -24.077 1.88592 -79.4846 -4.1165
lowerback 7.01908 2.95385 -0.789031
upperback -3.95208 3.80684 -0.679363
thorax -8.10556 1.87371 -0.802817
lowerneck -19.7585 2.77853 2.21577
upperneck 24.3805 0.834617 7.55573
head 11.2013 1.47219 2.50792
rclavicle 2.94698e-014 -8.34896e-015
rhumerus 30.9298 -48.9657 2.67814
rradius 70.6273
rwrist -8.88722
rhand -43.0331 17.3298
rfingers 7.12502
rthumb -15.8903 -12.0383
lclavicle 2.94698e-014 -8.34896e-015
lhumerus 61.1052 43.8024 19.5412
lradius 76.2274
lwrist -2.08249
lhand -25.1727 40.1501
lfingers 7.12502
lthumb 1.34477 70.1256
rfemur -5.93021 3.47494 -1.12547
rtibia 49.8515
rfoot -25.2279 -1.27617
rtoes -37.9451
lfemur -5.17667 -11.7612 10.7882
ltibia 32.6349
lfoot -17.4428 -9.17019
ltoes -42.4725
324
root 9.04331 15.7616 -24.0721 1.80517 -79.3355 -3.69752
lowerback 6.004 1.63657 -2.39219
upperback -4.07482 2.05503 1.58769
thorax -7.80311 1.17306 2.75548
lowerneck -18.0949 3.96487 -1.43511
upperneck 24.4754 3.82623 7.30251
head 10.6798 2.44692 3.40687
rclavicle 6.4605e-016 6.75868e-015
rhumerus 36.2235 -48.7936 -1.36997
rradius 68.6111
rwrist -8.5096
rhand -37.8733 20.5466
rfingers 7.12502
rthumb -10.9171 -9.14961
lclavicle 6.4605e-016 6.75868e-015
lhumerus 50.2934 44.8129 13.6147
lradius 73.9691
lwrist -1.00017
lhand -24.102 40.6534
lfingers 7.12502
lthumb 2.37889 70.6199
rfemur -5.32244 3.81891 -0.756611
rtibia 47.8831
rfoot -22.2188 -1.68009
rtoes -39.3607
lfemur -4.72206 -12.1941 10.2421
ltibia 30.9652
lfoot -14.5376 -9.18238
ltoes -44.3618
325
root 9.01282 16.0285 -24.0723 0.904921 -79.1554 -2.45218
lowerback 5.25938 1.57156 -2.90237
upperback -3.98892 1.95175 1.82957
thorax -7.30153 1.14819 3.3281
lowerneck -18.4984 3.83365 -1.82253
upperneck 24.3129 3.81918 7.16451
head 10.69 2.3998 3.42824
rclavicle 1.56543e-014 2.0276e-014
rhumerus 34.2975 -49.0222 -0.820849
rradius 66.439
rwrist -9.02581
rhand -33.3454 24.1675
rfingers 7.12502
rthumb -6.54767 -5.7113
lclavicle 1.56543e-014 2.0276e-014
lhumerus 46.8121 44.8974 12.0103
lradius 71.3431
lwrist -0.334546
lhand -22.9596 41.3763
lfingers 7.12502
lthumb 3.48212 71.3277
rfemur -4.77324 4.25007 -0.543159
rtibia 45.8479
rfoot -18.7804 -1.84318
rtoes -40.0056
lfemur -4.34335 -12.5511 9.51587
ltibia 29.1873
lfoot -10.5766 -9.79906
ltoes -44.7182
